<svg xmlns="http://www.w3.org/2000/svg" width="45" height="45" viewBox="0 0 45 45" fill="none" stroke="#af1d1f" stroke-width="1.8" stroke-linecap="round" stroke-linejoin="round">
  <!-- Car body -->
  <path d="M5 28 L8 20 L14 14 L31 14 L38 20 L41 28" />
  <!-- Car bottom / chassis -->
  <path d="M3 28 L3 32 Q3 34 5 34 L11 34 Q12 34 12 33 L12 31 Q12 30 13 30 L32 30 Q33 30 33 31 L33 33 Q33 34 34 34 L40 34 Q42 34 42 32 L42 28 Z" />
  <!-- Front wheel -->
  <circle cx="12" cy="33" r="4.5" stroke-width="1.8" />
  <circle cx="12" cy="33" r="1.5" stroke-width="1.2" />
  <!-- Rear wheel -->
  <circle cx="33" cy="33" r="4.5" stroke-width="1.8" />
  <circle cx="33" cy="33" r="1.5" stroke-width="1.2" />
  <!-- Windshield -->
  <line x1="15" y1="14" x2="18" y2="20" stroke-width="1.5" />
  <!-- Rear window -->
  <line x1="30" y1="14" x2="33" y2="20" stroke-width="1.5" />
  <!-- Door line -->
  <line x1="22.5" y1="14" x2="22.5" y2="28" stroke-width="1.3" />
  <!-- Headlight -->
  <line x1="39" y1="23" x2="41" y2="23" stroke-width="2" />
  <!-- Taillight -->
  <line x1="4" y1="23" x2="6" y2="23" stroke-width="2" />
</svg>
