<?xml version="1.0" encoding="utf-8"?><!-- Generator: Adobe Illustrator 25.2.3, SVG Export Plug-In . SVG Version: 6.00 Build 0)  --><svg version="1.1" id="Ebene_1" xmlns="http://www.w3.org/2000/svg" xmlns:xlink="http://www.w3.org/1999/xlink" x="0px" y="0px"	 viewBox="0 0 74.2 62.4" style="enable-background:new 0 0 74.2 62.4;" xml:space="preserve"><style type="text/css">	.st0{fill:#FFFFFF;}</style><g>	<g>		<path class="st0" d="M21,60.5C10,60.5,1,51.5,1,40.4C1,29.3,10,20.3,21,20.3c0,0,0,0,0,0l4.6-6.9c0.2-0.3,0.6-0.6,1-0.6h31.2			c0.4,0,0.8,0.2,1,0.6l7.2,10.9l1.4-1c0.2-0.2,0.5-0.2,0.7-0.2h4.9v2.5h-4.5l-1.2,0.9l0.1,0.2l5,5.6c0.2,0.2,0.3,0.5,0.3,0.8v16.7			c0,0.7-0.5,1.2-1.1,1.2v6.6c0,0.7-0.6,1.2-1.2,1.2h-9c-0.7,0-1.2-0.6-1.2-1.2v-6.6H38.1C34.4,56.8,27.9,60.5,21,60.5z M21,22.8			c-9.7,0-17.6,7.9-17.6,17.6C3.4,50.1,11.3,58,21,58c6.2,0,11.9-3.3,15.1-8.7c0-0.1,0.1-0.1,0.1-0.2c1.6-2.8,2.4-5.7,2.4-8.7			c0-2.9-0.7-5.7-2-8.1L21.8,53c-0.2,0.3-0.5,0.5-0.9,0.5c-0.4,0-0.7-0.1-1-0.3L7.5,42l1.7-1.8l11.4,10.3L35.3,30			c-3-4.1-7.7-6.8-13.2-7.1C21.7,22.8,21.2,22.8,21,22.8z M62.8,56.2h6.5v-5.3h-6.5V56.2z M39.4,48.4h31.1v-15l-4.9-5.6l-4,3			c-0.2,0.2-0.5,0.2-0.7,0.2H38.9c1.4,2.8,2.3,5.9,2.3,9.3C41.1,43.1,40.5,45.9,39.4,48.4z M37.3,28.6h23l3.8-2.8l-6.9-10.4H27.4			l-3.4,5.2C29.5,21.3,34.2,24.3,37.3,28.6z M62.6,43.7H53v-2.5h9l3.4-3.1l1.7,1.8l-3.7,3.5C63.2,43.6,62.9,43.7,62.6,43.7z"/>	</g></g></svg>