<?xml version="1.0" encoding="utf-8"?><!-- Generator: Adobe Illustrator 25.2.3, SVG Export Plug-In . SVG Version: 6.00 Build 0)  --><svg version="1.1" baseProfile="tiny" id="Ebene_1" xmlns="http://www.w3.org/2000/svg" xmlns:xlink="http://www.w3.org/1999/xlink"	 x="0px" y="0px" viewBox="0 0 83.8 62.4" overflow="visible" xml:space="preserve"><g>	<g>		<path fill="#FFFFFF" d="M76.2,58.8L55.8,41.7l2.8-3.3l-3.6-3c-2.3,2.2-5.1,3.9-8.4,4.8c-6.4,1.7-12.8,0-17.5-4			c-0.7,1.3-1.8,2.3-3.2,2.9l1.6,7.6c0.2,0,0.4,0,0.7,0.1c2.8,0.4,4.7,3.1,4.2,5.8l0,0c-0.2,1.3-0.9,2.5-2,3.3			c-1.1,0.8-2.4,1.1-3.8,0.9c-2.8-0.4-4.7-3.1-4.2-5.8c0.2-1.3,0.9-2.5,2-3.3c0.2-0.2,0.5-0.3,0.7-0.4l-1.6-7.5c-0.2,0-0.4,0-0.7,0			c-1.8-0.1-3.5-0.8-4.8-2.2c-1.3-1.3-1.9-3.1-1.8-4.9c0-0.3,0-0.5,0.1-0.8l-6.3-2c-0.2,0.3-0.5,0.7-0.8,0.9c-1,0.9-2.3,1.4-3.7,1.4			c-2.8-0.1-5-2.5-4.9-5.3c0.1-2.8,2.4-5.1,5.3-4.9c2.8,0.1,5,2.5,4.9,5.3c0,0.1,0,0.2,0,0.3l6.3,2c1.2-2.1,3.4-3.5,5.9-3.5			c-2.2-9.9,3.8-20,13.7-22.7c4.9-1.3,10.1-0.6,14.5,1.9c4.4,2.6,7.6,6.7,8.9,11.6c1.6,6,0.1,12.2-3.4,16.8l3.5,3l2.7-3.3l20.4,17.1			L76.2,58.8z M59.3,41.4l16.6,13.9l3.9-4.7L63.2,36.7L59.3,41.4z M27.4,49.1c-0.5,0-1.1,0.2-1.5,0.5c-0.6,0.4-0.9,1-1,1.7			c-0.2,1.4,0.7,2.8,2.2,3c0.7,0.1,1.4-0.1,1.9-0.5c0.6-0.4,0.9-1,1-1.7c0.2-1.4-0.7-2.8-2.2-3C27.7,49.1,27.6,49.1,27.4,49.1z			 M32.9,35.8c3.8,2.3,8.4,3.1,13,1.9c8.9-2.4,14.1-11.5,11.8-20.4c-1.2-4.3-3.9-7.9-7.8-10.1C46.1,5,41.6,4.4,37.3,5.6			C29.6,7.7,24.6,14.8,25,22.5c2.6,0.3,4.9,1.6,6.5,3.5l5.9-3.4c-0.4-0.9-0.5-2-0.4-3.1c0.3-3.8,3.7-6.7,7.6-6.3h0			c3.8,0.3,6.7,3.7,6.3,7.6c-0.2,1.9-1,3.5-2.5,4.7c-1.4,1.2-3.2,1.8-5.1,1.6c-1.9-0.2-3.5-1-4.6-2.4l-5.9,3.4			c0.6,1.3,0.9,2.8,0.9,4.3C33.6,33.6,33.3,34.8,32.9,35.8z M23.1,28.3c-2.4,0-4.3,1.9-4.4,4.3c0,1.2,0.4,2.3,1.2,3.2			c0.8,0.9,1.9,1.4,3.1,1.4c1.9,0.1,3.7-1.1,4.3-2.9c-1.5-1.7-2.7-3.7-3.5-5.9C23.4,28.3,23.1,28.3,23.1,28.3z M25.3,25.1			c0.1,0.3,0.1,0.6,0.2,0.9l0,0c0.9,3.4,2.8,6.2,5.3,8.3c0.2-0.6,0.3-1.3,0.3-2C31.3,28.8,28.7,25.7,25.3,25.1z M5.6,24.3			c-1.4,0-2.6,1.1-2.6,2.5c0,1.4,1.1,2.6,2.5,2.7c0.7,0,1.4-0.2,1.9-0.7c0.5-0.5,0.8-1.1,0.8-1.8v0c0-0.7-0.2-1.4-0.7-1.9			C7.1,24.6,6.4,24.3,5.6,24.3C5.7,24.3,5.7,24.3,5.6,24.3z M43.9,15.7c-2.3,0-4.3,1.8-4.5,4.1c-0.2,2.5,1.6,4.6,4.1,4.9			c1.2,0.1,2.4-0.3,3.3-1c0.9-0.8,1.5-1.9,1.6-3C48.6,18.1,46.7,15.7,43.9,15.7z"/>	</g></g></svg>