<?xml version="1.0" encoding="utf-8"?><!-- Generator: Adobe Illustrator 25.2.3, SVG Export Plug-In . SVG Version: 6.00 Build 0)  --><svg version="1.1" baseProfile="tiny" id="Ebene_1" xmlns="http://www.w3.org/2000/svg" xmlns:xlink="http://www.w3.org/1999/xlink"	 x="0px" y="0px" viewBox="0 0 62.4 62.4" overflow="visible" xml:space="preserve"><g>	<g>		<path fill="#FFFFFF" d="M61.1,21H47.6V10.3c0-0.5-0.3-0.9-0.7-1.1C46.4,9,45.9,9,45.6,9.3l-13,10.3v-9.4c0-0.5-0.3-0.9-0.7-1.1			C31.4,9,30.9,9,30.6,9.3l-13,10.3v-9.4c0-0.5-0.3-0.9-0.7-1.1C16.4,9,15.9,9,15.6,9.3l-15,11.9c-0.3,0.2-0.5,0.6-0.5,1v29.9			c0,0.7,0.6,1.2,1.2,1.2h38.5c0.7,0,1.2-0.6,1.2-1.2v-9.3h10.4v9.3c0,0.7,0.6,1.2,1.2,1.2h8.4c0.7,0,1.2-0.6,1.2-1.2V22.2			C62.3,21.6,61.7,21,61.1,21z M59.8,50.9h-5.9v-9.3c0-0.7-0.6-1.2-1.2-1.2H39.8c-0.7,0-1.2,0.6-1.2,1.2v9.3h-36v-28l12.5-10v9.4			c0,0.5,0.3,0.9,0.7,1.1c0.4,0.2,0.9,0.2,1.3-0.1l13-10.3v9.4c0,0.5,0.3,0.9,0.7,1.1c0.4,0.2,0.9,0.1,1.3-0.1l13-10.3v9.4			c0,0.7,0.6,1.2,1.2,1.2h13.5V50.9z"/>		<path fill="#FFFFFF" d="M30.7,32.8H10.8c-0.7,0-1.2,0.6-1.2,1.2v7.6c0,0.7,0.6,1.2,1.2,1.2h19.9c0.7,0,1.2-0.6,1.2-1.2V34			C31.9,33.3,31.4,32.8,30.7,32.8z M29.4,40.4H12v-5.1h17.4V40.4z"/>	</g></g></svg>