<?xml version="1.0" encoding="utf-8"?><!-- Generator: Adobe Illustrator 25.2.3, SVG Export Plug-In . SVG Version: 6.00 Build 0)  --><svg version="1.1" baseProfile="tiny" id="Ebene_1" xmlns="http://www.w3.org/2000/svg" xmlns:xlink="http://www.w3.org/1999/xlink"	 x="0px" y="0px" viewBox="0 0 74.2 62.4" overflow="visible" xml:space="preserve"><g>	<g>		<path fill="#FFFFFF" d="M20.1,62.4C9,62.4,0,53.4,0,42.3C0,34.1,4.9,27,12,23.9v-5.4c0-0.4,0.2-0.7,0.5-1l15-11.9			c0.4-0.3,0.9-0.4,1.3-0.1c0.4,0.2,0.7,0.6,0.7,1.1v9.3L42.4,5.6c0.4-0.3,0.9-0.4,1.3-0.1c0.4,0.2,0.7,0.6,0.7,1.1v9.3L57.4,5.6			c0.4-0.3,0.9-0.4,1.3-0.1c0.4,0.2,0.7,0.6,0.7,1.1v10.7h13.5c0.7,0,1.2,0.6,1.2,1.2v29.8c0,0.7-0.6,1.2-1.2,1.2h-8.4			c-0.7,0-1.2-0.6-1.2-1.2v-9.2H52.9v9.2c0,0.7-0.6,1.2-1.2,1.2H38.8C35.9,57.1,28.6,62.4,20.1,62.4z M6.2,53.1			c3.2,4.1,8.2,6.8,13.9,6.8c9.7,0,17.6-7.9,17.6-17.6s-7.9-17.6-17.6-17.6S2.5,32.6,2.5,42.3c0,3.2,0.8,6.1,2.3,8.7l6.7-7.3			c0.5-0.5,1.2-0.5,1.7-0.1l4.5,3.9l9.9-12.3l-6,0.8l-0.3-2.5l9.2-1.3c0.7-0.1,1.3,0.4,1.4,1.1l1.3,9.2L30.7,43l-0.9-6.4L18.9,50.1			c-0.2,0.3-0.5,0.4-0.9,0.5c-0.3,0-0.7-0.1-0.9-0.3l-4.6-4L6.2,53.1z M65.7,47.1h5.9V19.8H58.1c-0.7,0-1.2-0.6-1.2-1.2V9.2L44,19.5			c-0.4,0.3-0.9,0.4-1.3,0.1c-0.4-0.2-0.7-0.6-0.7-1.1V9.2L29,19.5c-0.4,0.3-0.9,0.4-1.3,0.1C27.2,19.4,27,19,27,18.5V9.2l-12.5,9.9			V23c1.8-0.5,3.6-0.8,5.6-0.8c11.1,0,20.1,9,20.1,20.1c0,1.6-0.2,3.2-0.6,4.8h10.8v-9.2c0-0.7,0.6-1.2,1.2-1.2h12.8			c0.7,0,1.2,0.6,1.2,1.2V47.1z"/>	</g></g></svg>