<?xml version="1.0" encoding="utf-8"?><!-- Generator: Adobe Illustrator 25.2.3, SVG Export Plug-In . SVG Version: 6.00 Build 0)  --><svg version="1.1" baseProfile="tiny" id="Ebene_1" xmlns="http://www.w3.org/2000/svg" xmlns:xlink="http://www.w3.org/1999/xlink"	 x="0px" y="0px" viewBox="0 0 62.4 62.4" overflow="visible" xml:space="preserve"><g>	<g>		<path fill="#FFFFFF" d="M42,61c-2,0-4-0.3-5.8-0.9H5.6c-0.3,0-3.9-0.5-5-3.8c-1-3,1.1-6.3,1.4-6.7l11.3-20.3V5.8h16.9v19			c3.3-2.5,7.5-3.9,11.9-3.9c11.1,0,20.1,9,20.1,20.1C62.1,52,53.1,61,42,61z M42,23.3c-9.7,0-17.6,7.9-17.6,17.6			c0,9.7,7.9,17.6,17.6,17.6c9.7,0,17.6-7.9,17.6-17.6C59.6,31.2,51.7,23.3,42,23.3z M10.8,38.8L4,51c-0.5,0.8-1.6,3-1.1,4.6			c0.6,1.9,2.8,2.1,2.8,2.1l25.2,0c-5.4-3.6-9-9.8-9-16.7c0-0.7,0-1.4,0.1-2.1H10.8z M12.2,36.3h10.3c0.8-3.6,2.7-6.8,5.1-9.4V8.3			h-12V30L12.2,36.3z M43.3,54.6h-2.5V42.2H28.4v-2.5h12.4V27.2h2.5v12.4h12.4v2.5H43.3V54.6z"/>	</g></g></svg>