<svg xmlns="http://www.w3.org/2000/svg" width="45" height="45" viewBox="0 0 45 45" fill="none" stroke="#af1d1f" stroke-width="1.8" stroke-linecap="round" stroke-linejoin="round">
  <!-- Person - head -->
  <circle cx="13" cy="8" r="4.5" />
  <!-- Person - body -->
  <line x1="13" y1="12.5" x2="13" y2="26" />
  <!-- Person - arms (one raised pointing at board) -->
  <path d="M13 17 L6 24" />
  <path d="M13 17 L24 12" />
  <!-- Person - legs -->
  <line x1="13" y1="26" x2="7" y2="38" />
  <line x1="13" y1="26" x2="19" y2="38" />
  <!-- Presentation board -->
  <rect x="22" y="6" width="20" height="16" rx="1.5" />
  <!-- Chart - rising bar chart -->
  <line x1="26" y1="18" x2="26" y2="14" stroke-width="2" />
  <line x1="30" y1="18" x2="30" y2="12" stroke-width="2" />
  <line x1="34" y1="18" x2="34" y2="15" stroke-width="2" />
  <line x1="38" y1="18" x2="38" y2="10" stroke-width="2" />
  <!-- Board stand -->
  <line x1="32" y1="22" x2="32" y2="30" />
  <line x1="26" y1="30" x2="38" y2="30" />
  <!-- Trend arrow -->
  <path d="M25 16 L39 9" stroke-width="1.3" />
  <path d="M36 8.5 L39 9 L38 12" stroke-width="1.3" fill="none" />
</svg>
