<?xml version="1.0" encoding="utf-8"?><!-- Generator: Adobe Illustrator 25.2.3, SVG Export Plug-In . SVG Version: 6.00 Build 0)  --><svg version="1.1" baseProfile="tiny" id="Ebene_1" xmlns="http://www.w3.org/2000/svg" xmlns:xlink="http://www.w3.org/1999/xlink"	 x="0px" y="0px" viewBox="0 0 75.2 62.4" overflow="visible" xml:space="preserve"><g>	<g>		<path fill="#FFFFFF" d="M73.4,59.3H39c-0.7,0-1.2-0.6-1.2-1.2v-5.8H6.7c-3.4,0-6.1-2.8-6.1-6.2v-3.6c0-0.7,0.6-1.2,1.2-1.2l2.4,0			v-28c0-2,1.7-3.7,3.7-3.7h41.2c1.9-1.8,4.4-2.9,7.2-2.9c5.8,0,10.4,4.7,10.4,10.4S62,27.6,56.3,27.6c-0.3,0-0.5,0-0.8,0v1.6h8.7			c0.2,0,4.7,0.1,7.4,4c3.1,4.5,3,9.5,3,9.7V58C74.6,58.7,74.1,59.3,73.4,59.3z M67.5,56.8h4.7V42.8c0-0.1,0.1-4.4-2.6-8.3			c-2-2.9-5.4-3-5.4-3H48.2c-0.2,0-3.4,0.2-5.4,3.1c-2.7,3.8-2.6,8-2.6,8.1v14h4.6V41.9h2.5v14.9H65V41.9h2.5V56.8z M3,43.7v2.4			c0,2,1.6,3.7,3.6,3.7h31.1v-6H5.5c0,0,0,0,0,0L3,43.7z M6.7,41.2h31.2c0.1-0.7,0.2-1.6,0.5-2.6c-0.1-4.6-3.9-8.4-8.5-8.4			c-4.7,0-8.5,3.8-8.5,8.5h-2.5c0-6.1,4.9-11,11-11c4.6,0,8.5,2.8,10.2,6.8c0.2-0.4,0.5-0.9,0.8-1.3c0.6-0.9,1.4-1.6,2.1-2.2			c-0.2-0.4-0.4-0.8-0.7-1.2c-0.3-0.5-0.2-1.1,0.2-1.5l2-2L41.1,23l-2,2c-0.4,0.4-1,0.5-1.5,0.2c-1.3-0.8-3.3-1.5-4.4-1.8			c-0.5-0.2-0.9-0.6-0.9-1.2v-2.9h-4.8v2.9c0,0.6-0.4,1.1-1,1.2c-1.5,0.4-3,1-4.3,1.8c-0.5,0.3-1.1,0.2-1.5-0.2l-2-2l-3.4,3.4l2,2			c0.4,0.4,0.5,1,0.2,1.5c-0.8,1.3-1.4,2.8-1.8,4.3c-0.1,0.6-0.6,1-1.2,1h-2.9v3.6H9.1V34c0-0.7,0.6-1.2,1.2-1.2h3.1			c0.3-1.1,0.8-2.2,1.3-3.2l-2.2-2.2c-0.2-0.2-0.4-0.6-0.4-0.9c0-0.3,0.1-0.6,0.4-0.9l5.2-5.2c0.2-0.2,0.5-0.4,0.9-0.4l0,0			c0.3,0,0.6,0.1,0.9,0.4l2.2,2.2c1-0.6,2.1-1,3.2-1.3v-3.1c0-0.7,0.6-1.2,1.2-1.2h7.3c0.7,0,1.2,0.6,1.2,1.2v3.2			c0.9,0.3,2.1,0.8,3.2,1.3l2.2-2.2c0.5-0.5,1.3-0.5,1.8,0l5.2,5.2c0.5,0.5,0.5,1.3,0,1.8l-2.2,2.2c0.1,0.1,0.1,0.3,0.2,0.4			c1.6-0.7,2.7-0.8,3.1-0.8l4.8,0V27c-4.2-1.4-7.2-5.3-7.2-9.9c0-1.8,0.5-3.6,1.3-5.1H7.9c-0.7,0-1.2,0.5-1.2,1.2V41.2z M56.3,9.2			c-4.4,0-8,3.6-8,8c0,4.4,3.6,8,8,8s8-3.6,8-8C64.2,12.7,60.7,9.2,56.3,9.2z M33.5,47.4h-7.3v-2.5h7.3V47.4z"/>	</g></g></svg>